# xmcd
#
# Track frame offsets:
#	150
#	15847
#	36267
#	54213
#	72274
#	92530
#	123971
#	140595
#	162111
#	179780
#	194952
#	218873
#	235801
#	255834
#	273765
#
# Disc length: 3852 seconds
#
# Revision: 1
# Processed by: cddbd v1.5.2PL0 Copyright (c) Steve Scherf et al.
# Submitted via: audiograbber 1.83.01
#
DISCID=cc0f0a0f
DTITLE=Various Artist - Etsi einai i agapi - CD 1
DYEAR=2012
DGENRE=Slow
TTITLE0=Joe Dassin - Et si tu n'existais pas
TTITLE1=Whitney Houston - I will always love you
TTITLE2=Marvin Gaye - Sexual healing
TTITLE3=Cyndi Lauper - Time after time
TTITLE4=Toni Braxton - Un-break my heart
TTITLE5=Bonnie Tyler - Total eclipse of the heart
TTITLE6=Luther Vandross - So amazing
TTITLE7=Billy Paul - Me and Mrs Jones
TTITLE8=The Bangles - Eternal flame
TTITLE9=REO Speedwagon - Keep on loving you
TTITLE10=Michael Bolton - Lean on me
TTITLE11=Lou Reed - Perfect day
TTITLE12=Jeniffer Rush - The power of love
TTITLE13=Alison Moyet - Is this love
TTITLE14=Patti Smith Group - Because the night
EXTD=Efimerida Dimokratia
EXTT0=
EXTT1=
EXTT2=
EXTT3=
EXTT4=
EXTT5=
EXTT6=
EXTT7=
EXTT8=
EXTT9=
EXTT10=
EXTT11=
EXTT12=
EXTT13=
EXTT14=
PLAYORDER=
